<?xml version="1.0" standalone="no"?>
<!DOCTYPE svg PUBLIC "-//W3C//DTD SVG 20010904//EN"
 "http://www.w3.org/TR/2001/REC-SVG-20010904/DTD/svg10.dtd">
<svg version="1.0" xmlns="http://www.w3.org/2000/svg"
 width="554.000000pt" height="553.000000pt" viewBox="0 0 554.000000 553.000000"
 preserveAspectRatio="xMidYMid meet">

<g transform="translate(0.000000,553.000000) scale(0.100000,-0.100000)"
fill="#000000" stroke="none">
<path d="M3407 5383 c-2 -5 -9 -24 -15 -43 -6 -19 -63 -195 -127 -392 l-115
-356 -103 -50 c-122 -60 -214 -135 -290 -234 -142 -187 -211 -395 -223 -673
-11 -227 8 -355 131 -884 152 -660 185 -862 185 -1141 0 -218 -29 -371 -96
-500 -111 -217 -300 -323 -599 -336 -66 -3 -154 -2 -195 3 -67 7 -75 10 -72
28 6 46 2 443 -6 475 l-8 34 -26 -45 c-36 -61 -185 -265 -255 -348 -150 -180
-380 -389 -538 -492 l-69 -44 60 -3 c402 -17 920 -74 1479 -163 685 -110 1094
185 1095 788 0 182 -52 532 -169 1148 -107 562 -126 696 -118 838 13 243 120
475 293 636 82 77 176 129 279 156 125 33 318 14 449 -44 60 -26 121 -106 200
-262 50 -97 66 -121 70 -105 12 43 5 262 -10 354 -15 88 -15 101 0 169 9 40
16 93 16 116 0 91 -26 83 308 96 163 7 335 15 382 19 l85 7 3 36 3 36 -98 6
c-54 4 -213 9 -353 12 -313 7 -340 10 -340 35 0 10 8 21 18 24 9 3 168 35 352
71 184 37 345 69 357 72 19 4 21 10 16 41 -3 21 -7 38 -8 40 -2 2 -175 -18
-385 -44 -394 -48 -400 -49 -400 -9 0 6 157 70 348 144 191 74 349 135 350
137 8 6 -20 74 -29 74 -6 0 -170 -49 -365 -110 -196 -60 -358 -110 -362 -110
-4 1 -22 23 -41 49 -19 26 -49 58 -67 71 -31 21 -40 22 -126 15 -144 -10 -389
-34 -537 -51 -73 -8 -135 -13 -137 -11 -3 2 27 151 66 331 38 179 70 333 70
341 0 11 -11 15 -37 15 l-38 0 -109 -348 c-60 -191 -114 -352 -120 -359 -6 -7
-37 -15 -68 -19 l-57 -7 9 34 c9 33 52 220 126 549 19 85 37 163 40 173 4 14
-1 17 -35 17 -22 0 -42 -3 -44 -7z m364 -1338 c75 -16 155 -53 151 -70 -1 -6
-61 -13 -139 -16 -215 -9 -355 -44 -516 -126 -108 -56 -222 -160 -287 -261
-25 -39 -48 -71 -52 -71 -13 -1 -8 111 7 177 33 140 125 260 239 313 137 63
427 90 597 54z"/>
<path d="M2516 4400 c-245 -98 -474 -228 -691 -394 -84 -63 -291 -243 -337
-292 l-27 -29 136 -157 136 -157 56 49 56 50 12 -41 c31 -104 45 -268 40 -457
-3 -103 -9 -202 -14 -221 l-8 -34 -45 64 c-43 62 -162 212 -233 294 l-35 41
34 54 c18 30 33 61 31 67 -2 15 -257 313 -266 313 -9 0 -142 -203 -200 -308
-84 -148 -213 -438 -199 -446 2 -1 76 -69 165 -150 89 -81 165 -147 170 -147
4 1 15 21 23 46 8 25 19 45 25 46 12 1 57 -107 81 -197 15 -54 19 -103 18
-224 -1 -163 -17 -252 -63 -352 -18 -41 -20 -42 -27 -19 -13 45 -94 203 -139
272 l-44 68 29 93 c16 51 30 96 30 99 0 6 -270 254 -301 276 -16 12 -20 5 -45
-70 -157 -478 -423 -961 -668 -1213 -66 -68 -69 -73 -41 -67 160 30 388 81
515 115 221 58 200 56 195 17 -3 -19 -9 -74 -15 -124 -33 -269 -150 -615 -281
-828 -17 -27 -28 -51 -26 -53 7 -7 136 36 214 71 395 181 818 633 1076 1153
44 89 84 159 88 155 13 -15 79 -298 94 -405 8 -59 18 -180 22 -268 l6 -160 43
0 c70 0 195 20 261 41 222 72 323 276 323 647 0 256 -34 456 -199 1172 -108
467 -115 516 -115 770 0 166 4 235 17 304 40 200 116 379 218 517 33 43 58 79
56 79 -1 0 -69 -27 -151 -60z"/>
<path d="M4798 2478 c5 -203 -11 -317 -59 -435 -72 -171 -191 -258 -369 -270
-219 -15 -435 119 -609 376 -54 79 -142 248 -177 338 -15 40 -29 72 -30 70 -6
-6 48 -337 75 -458 118 -531 303 -869 541 -993 90 -47 155 -60 259 -53 145 10
253 57 347 151 68 68 111 148 143 266 25 91 43 286 35 378 -22 261 -50 423
-115 651 -22 80 -42 147 -43 149 -2 1 -1 -75 2 -170z"/>
<path d="M3755 695 c-83 -218 -203 -393 -331 -481 l-57 -39 59 -8 c65 -9 408
-2 426 9 7 5 9 46 5 133 -6 131 -36 276 -75 362 -17 38 -21 41 -27 24z"/>
</g>
</svg>
